<svg id="e49bd00e-04c7-4a24-9a06-f854815a72ca" data-name="insta" xmlns="http://www.w3.org/2000/svg" viewBox="0 0 1075.08 1075.06"><defs><style>.b5e00abb-a926-4a86-b540-27318c75c12d{fill:#705abf;}.b5ff6052-9b16-4e3d-be28-5fb4f7ae3eb9{fill:#fff;}</style></defs><rect class="b5e00abb-a926-4a86-b540-27318c75c12d" x="342.12" y="338.7" width="390.84" height="397.67"/><circle class="b5ff6052-9b16-4e3d-be28-5fb4f7ae3eb9" cx="537.54" cy="537.53" r="96.14"/><path class="b5ff6052-9b16-4e3d-be28-5fb4f7ae3eb9" d="M658.15,302.42H417.79c-35,0-65.56,10.92-85.22,30.59S302,383.27,302,418.23V658.59c0,35,10.92,65.55,32.77,87.4C356.6,765.66,385,776.58,420,776.58H658.15c35,0,65.55-10.92,85.21-30.59,21.86-19.67,32.78-50.26,32.78-85.22V420.41c0-35-10.92-63.37-30.59-85.22C723.7,313.34,695.29,302.42,658.15,302.42ZM538,687c-83,0-148.59-67.74-148.59-148.58,0-83,67.74-148.59,148.59-148.59s150.77,65.55,150.77,148.59S621,687,538,687ZM693.11,418.23a35,35,0,1,1,35-35A34.51,34.51,0,0,1,693.11,418.23Z" transform="translate(-1.52 -1.97)"/><path class="b5e00abb-a926-4a86-b540-27318c75c12d" d="M539.05,2C241.88,2,1.52,242.33,1.52,539.5S241.88,1077,539.05,1077s537.53-240.36,537.53-537.53C1078.77,242.33,836.22,2,539.05,2ZM825.3,666.23c0,50.26-17.48,94-48.07,124.55s-74.3,45.89-122.37,45.89H416.69c-48.08,0-91.78-15.29-122.37-45.89-32.77-30.59-48.07-74.29-48.07-124.55V425.87c0-100.51,67.74-170.43,170.44-170.43H657.05c50.25,0,91.77,17.48,122.36,48.07s45.89,72.11,45.89,122.36Z" transform="translate(-1.52 -1.97)"/></svg>