<svg id="ee488c83-1a93-42a8-8ef8-bbc9b9d59d5b" data-name="twitter" xmlns="http://www.w3.org/2000/svg" viewBox="0 0 1076.41 1074.23"><defs><style>.bf3628ae-70da-4cb1-935b-f5bbf6c3ad4c{fill:#705abf;}</style></defs><path class="bf3628ae-70da-4cb1-935b-f5bbf6c3ad4c" d="M537.3,1.28C240.36,1.28.18,241.45.18,538.39s240.18,537.12,537.12,537.12,539.3-240.18,539.3-537.12S834.24,1.28,537.3,1.28ZM810.22,429.22v17.47c0,179-135.37,386.46-386.46,386.46-76.42,0-148.47-21.83-207.42-61.14,10.92,2.19,21.83,2.19,32.75,2.19a266.88,266.88,0,0,0,168.12-59c-58.95-2.19-109.17-39.31-126.63-93.89,8.73,2.18,17.46,2.18,26.2,2.18,13.1,0,24-2.18,34.93-4.36C290.58,606.08,242.54,551.49,242.54,486v-2.18c17.47,10.91,39.3,15.28,61.14,17.46-37.12-24-61.14-65.5-61.14-113.53A141.8,141.8,0,0,1,260,320.05C327.69,403,426,455.42,539.48,462c-2.18-10.92-4.36-19.65-4.36-30.57,0-74.23,61.13-135.37,135.37-135.37,39.3,0,74.23,17.47,98.25,43.67A287.33,287.33,0,0,0,853.89,307C843,339.7,823.32,365.9,794.94,381.19c28.38-2.19,54.58-10.92,78.6-21.84C858.26,385.55,836.42,409.57,810.22,429.22Z" transform="translate(-0.18 -1.28)"/></svg>